# xmcd CD database file
#
# Track frame offsets:
#	150
#	18268
#	35166
#	49826
#	69276
#	85069
#	101766
#	116694
#	140741
#
# Disc length: 2193 seconds
#
# Revision: 0
# Processed by: cddbd v1.5.2PL0 Copyright (c) Steve Scherf et al.
# Submitted via: CDex 1.81
#
DISCID=79088f09
DTITLE=Lina Modika - Lina modika
DYEAR=2015
DGENRE=Jazz
TTITLE0=Displacement song
TTITLE1=Enjoy the silence
TTITLE2=Strange is the man
TTITLE3=Little drop of poison
TTITLE4=All about that bass
TTITLE5=The beggar and the thief
TTITLE6=La celestina
TTITLE7=Aqua e mel
TTITLE8=Wicked game
EXTD=YEAR: 2015
EXTT0=
EXTT1=
EXTT2=
EXTT3=
EXTT4=
EXTT5=
EXTT6=
EXTT7=
EXTT8=
PLAYORDER=
